<?xml version="1.0" encoding="UTF-8" standalone="no"?>
<svg
   xmlns:dc="http://purl.org/dc/elements/1.1/"
   xmlns:cc="http://creativecommons.org/ns#"
   xmlns:rdf="http://www.w3.org/1999/02/22-rdf-syntax-ns#"
   xmlns:svg="http://www.w3.org/2000/svg"
   xmlns="http://www.w3.org/2000/svg"
   xmlns:sodipodi="http://sodipodi.sourceforge.net/DTD/sodipodi-0.dtd"
   xmlns:inkscape="http://www.inkscape.org/namespaces/inkscape"
   width="200"
   height="200"
   fill="#000000"
   version="1.1"
   x="0px"
   y="0px"
   viewBox="0 0 100 100"
   enable-background="new 0 0 100 100"
   xml:space="preserve"
   id="svg2"
   inkscape:version="0.91 r13725"
   sodipodi:docname="column-small.svg"><metadata
     id="metadata10"><rdf:RDF><cc:Work
         rdf:about=""><dc:format>image/svg+xml</dc:format><dc:type
           rdf:resource="http://purl.org/dc/dcmitype/StillImage" /></cc:Work></rdf:RDF></metadata><defs
     id="defs8" /><sodipodi:namedview
     pagecolor="#ffffff"
     bordercolor="#666666"
     borderopacity="1"
     objecttolerance="10"
     gridtolerance="10"
     guidetolerance="10"
     inkscape:pageopacity="0"
     inkscape:pageshadow="2"
     inkscape:window-width="1202"
     inkscape:window-height="932"
     id="namedview6"
     showgrid="false"
     inkscape:zoom="3.5492187"
     inkscape:cx="33.365617"
     inkscape:cy="100"
     inkscape:window-x="24"
     inkscape:window-y="43"
     inkscape:window-maximized="0"
     inkscape:current-layer="svg2" /><path
     fill="#000000"
     d="M87.969,30.417c0.077-7.12-5.036-13.096-11.807-14.36V8.994c0-1.192-0.966-2.158-2.158-2.158H27.44  c-1.192,0-2.158,0.966-2.158,2.158v6.89c-7.317,0.782-12.998,7.028-12.917,14.533c0.051,4.685,1.922,9.07,5.27,12.347  c2.17,2.124,4.795,3.613,7.647,4.388v5.982v37.872c0,1.192,0.966,2.158,2.158,2.158h46.564c1.192,0,2.158-0.966,2.158-2.158V53.134  v-6.322c2.423-0.836,4.651-2.203,6.537-4.049C86.047,39.487,87.918,35.102,87.969,30.417z M29.597,11.152h42.249v3.208H29.597  V11.152z M71.846,88.848h-6.695V65.164c0-1.192-0.966-2.158-2.158-2.158c-1.192,0-2.158,0.966-2.158,2.158v23.684h-7.882V65.164  c0-1.192-0.966-2.158-2.158-2.158s-2.158,0.966-2.158,2.158v23.684h-8.03V65.164c0-1.192-0.966-2.158-2.158-2.158  s-2.158,0.966-2.158,2.158v23.684h-6.695V55.292h42.249V88.848z M71.846,47.769v3.208H29.597v-3.208H71.846z M70.434,43.453  c-0.056,0-0.108-0.002-0.17-0.001c-0.004,0-0.007,0.001-0.011,0.001H30.08c-0.004,0-0.007-0.001-0.011-0.001  c-0.008,0-0.016,0-0.024,0c-3.52,0.053-6.868-1.302-9.392-3.772c-2.524-2.47-3.935-5.776-3.973-9.309  c-0.06-5.595,4.443-10.196,10.038-10.257c0,0,0.001,0,0.001,0c0.028,0,0.055,0,0.082-0.001c4.201,0,7.64,3.394,7.685,7.604  c0.017,1.527-0.563,2.97-1.631,4.061c-1.068,1.091-2.498,1.702-4.025,1.718c0,0-0.001,0-0.001,0c-0.015,0-0.03,0-0.045,0  c-2.263,0-4.117-1.829-4.141-4.098c-0.017-1.589,1.262-2.896,2.852-2.913c1.192-0.013,2.147-0.989,2.135-2.181  c-0.013-1.184-0.976-2.135-2.158-2.135c-0.008,0-0.016,0-0.024,0c-1.923,0.021-3.722,0.789-5.067,2.163  c-1.345,1.374-2.074,3.19-2.054,5.112c0.05,4.633,3.835,8.368,8.456,8.367c0.031,0,0.062,0,0.093,0  c2.68-0.029,5.188-1.1,7.063-3.015c1.874-1.916,2.891-4.446,2.862-7.126c-0.039-3.606-1.678-6.821-4.227-8.996h31.182  c-2.55,2.175-4.188,5.389-4.227,8.996c-0.059,5.532,4.394,10.081,9.925,10.141c0.032,0,0.063,0,0.093,0  c2.225,0,4.321-0.855,5.914-2.413c1.614-1.58,2.517-3.695,2.541-5.954c0.021-1.923-0.709-3.739-2.053-5.113  c-1.345-1.374-3.145-2.142-5.067-2.163c-0.008,0-0.015,0-0.024,0c-1.181,0-2.145,0.951-2.157,2.135  c-0.013,1.192,0.943,2.168,2.135,2.181c0.77,0.008,1.491,0.316,2.029,0.866c0.538,0.55,0.83,1.277,0.822,2.047  c-0.012,1.107-0.454,2.142-1.245,2.916c-0.78,0.763-1.807,1.182-2.896,1.182c-0.015,0-0.03,0-0.046,0  c-3.153-0.034-5.69-2.626-5.656-5.779c0.045-4.21,3.484-7.604,7.685-7.604c0.027,0,0.055,0,0.084,0.001  c5.595,0.06,10.098,4.661,10.038,10.257c-0.038,3.532-1.449,6.838-3.974,9.309C77.19,42.116,73.912,43.453,70.434,43.453z"
     id="path4"
     style="fill:#1060ae;fill-opacity:1" /></svg>