<?xml version="1.0" encoding="UTF-8" standalone="no"?>
<svg
   xmlns:dc="http://purl.org/dc/elements/1.1/"
   xmlns:cc="http://creativecommons.org/ns#"
   xmlns:rdf="http://www.w3.org/1999/02/22-rdf-syntax-ns#"
   xmlns:svg="http://www.w3.org/2000/svg"
   xmlns="http://www.w3.org/2000/svg"
   xmlns:sodipodi="http://sodipodi.sourceforge.net/DTD/sodipodi-0.dtd"
   xmlns:inkscape="http://www.inkscape.org/namespaces/inkscape"
   width="200"
   height="200"
   fill="#000000"
   version="1.1"
   x="0px"
   y="0px"
   viewBox="0 0 100 100"
   enable-background="new 0 0 100 100"
   xml:space="preserve"
   id="svg2"
   inkscape:version="0.91 r13725"
   sodipodi:docname="evileye.svg"><metadata
     id="metadata20"><rdf:RDF><cc:Work
         rdf:about=""><dc:format>image/svg+xml</dc:format><dc:type
           rdf:resource="http://purl.org/dc/dcmitype/StillImage" /></cc:Work></rdf:RDF></metadata><defs
     id="defs18" /><sodipodi:namedview
     pagecolor="#ffffff"
     bordercolor="#666666"
     borderopacity="1"
     objecttolerance="10"
     gridtolerance="10"
     guidetolerance="10"
     inkscape:pageopacity="0"
     inkscape:pageshadow="2"
     inkscape:window-width="1401"
     inkscape:window-height="1141"
     id="namedview16"
     showgrid="false"
     inkscape:zoom="3.8257812"
     inkscape:cx="100"
     inkscape:cy="100"
     inkscape:window-x="0"
     inkscape:window-y="0"
     inkscape:window-maximized="0"
     inkscape:current-layer="g4" /><g
     id="g4"><path
       d="M50,58.998c-8.28,0-15,6.721-15,15c0,8.281,6.72,15,15,15c8.28,0,15-6.719,15-15C65,65.719,58.28,58.998,50,58.998z    M50,83.998c-2.76,0-5-2.24-5-5s2.24-5,5-5s5,2.24,5,5S52.76,83.998,50,83.998z"
       id="path12"
       style="fill:#1060ae;fill-opacity:1" /><path
       d="M74.75,39.249L54,17.929v5.07c0.63,0.83,1,1.87,1,3c0,2.76-2.24,5-5,5s-5-2.24-5-5c0-1.13,0.37-2.17,1-3v-5.07   l-20.75,21.32c-13.67,13.669-13.67,35.83,0,49.5s35.83,13.67,49.5,0S88.42,52.918,74.75,39.249z M50,93.998   c-13.81,0-25-11.189-25-25c0-13.809,11.19-25,25-25c13.81,0,25,11.191,25,25C75,82.809,63.81,93.998,50,93.998z"
       id="path8"
       style="fill:#1060ae;fill-opacity:1" /><path
       d="M60.37,2.559c-2.771,0-6.08,1.53-8.46,2.87c-0.24-0.83-1.01-1.43-1.91-1.43s-1.67,0.6-1.91,1.43   c-2.38-1.34-5.69-2.87-8.46-2.87c-3.53,0-5.63,2.4-5.63,6.44s2.1,6.44,5.63,6.44c2.73,0,6-1.49,8.37-2.82v11.38c0,1.1,0.9,2,2,2   c1.1,0,2-0.9,2-2v-11.38c2.37,1.33,5.64,2.82,8.37,2.82c3.53,0,5.63-2.4,5.63-6.44S63.9,2.559,60.37,2.559z M39.63,11.438   c-0.76,0-1.63,0-1.63-2.44s0.87-2.44,1.63-2.44c1.87,0,4.56,1.25,6.63,2.44C44.19,10.188,41.5,11.438,39.63,11.438z M60.37,11.438   c-1.87,0-4.561-1.25-6.63-2.44c2.069-1.19,4.76-2.44,6.63-2.44c0.76,0,1.63,0,1.63,2.44S61.13,11.438,60.37,11.438z"
       id="path14"
       style="fill:#1060ae;fill-opacity:1" /></g></svg>